{
    "asset" : {
        "generator" : "Khronos glTF Blender I/O v1.6.16",
        "version" : "2.0"
    },
    "scene" : 0,
    "scenes" : [
        {
            "name" : "Scene",
            "nodes" : [
                0,
                1
            ]
        }
    ],
    "nodes" : [
        {
            "mesh" : 0,
            "name" : "lift_bot",
            "translation" : [
                0,
                4,
                0
            ]
        },
        {
            "mesh" : 1,
            "name" : "Cube.001",
            "translation" : [
                -1.4000000953674316,
                6.899999618530273,
                -0.24000002443790436
            ]
        }
    ],
    "materials" : [
        {
            "doubleSided" : true,
            "name" : "lift",
            "pbrMetallicRoughness" : {
                "baseColorFactor" : [
                    0.19139346480369568,
                    0.38655921816825867,
                    0.8000000715255737,
                    1
                ],
                "metallicFactor" : 0.39669421315193176,
                "roughnessFactor" : 0.5
            }
        }
    ],
    "meshes" : [
        {
            "name" : "Plane",
            "primitives" : [
                {
                    "attributes" : {
                        "POSITION" : 0,
                        "NORMAL" : 1,
                        "TEXCOORD_0" : 2
                    },
                    "indices" : 3,
                    "material" : 0
                }
            ]
        },
        {
            "name" : "Cube",
            "primitives" : [
                {
                    "attributes" : {
                        "POSITION" : 4,
                        "NORMAL" : 5,
                        "TEXCOORD_0" : 6
                    },
                    "indices" : 7
                }
            ]
        }
    ],
    "accessors" : [
        {
            "bufferView" : 0,
            "componentType" : 5126,
            "count" : 136,
            "max" : [
                1.3000000715255737,
                3.1999998092651367,
                1.260000228881836
            ],
            "min" : [
                -1.100000023841858,
                0,
                -1.8600001335144043
            ],
            "type" : "VEC3"
        },
        {
            "bufferView" : 1,
            "componentType" : 5126,
            "count" : 136,
            "type" : "VEC3"
        },
        {
            "bufferView" : 2,
            "componentType" : 5126,
            "count" : 136,
            "type" : "VEC2"
        },
        {
            "bufferView" : 3,
            "componentType" : 5123,
            "count" : 300,
            "type" : "SCALAR"
        },
        {
            "bufferView" : 4,
            "componentType" : 5126,
            "count" : 24,
            "max" : [
                0.2995200753211975,
                0.2995200455188751,
                0.2995200753211975
            ],
            "min" : [
                -0.29951998591423035,
                -0.2995200455188751,
                -0.29952001571655273
            ],
            "type" : "VEC3"
        },
        {
            "bufferView" : 5,
            "componentType" : 5126,
            "count" : 24,
            "type" : "VEC3"
        },
        {
            "bufferView" : 6,
            "componentType" : 5126,
            "count" : 24,
            "type" : "VEC2"
        },
        {
            "bufferView" : 7,
            "componentType" : 5123,
            "count" : 36,
            "type" : "SCALAR"
        }
    ],
    "bufferViews" : [
        {
            "buffer" : 0,
            "byteLength" : 1632,
            "byteOffset" : 0
        },
        {
            "buffer" : 0,
            "byteLength" : 1632,
            "byteOffset" : 1632
        },
        {
            "buffer" : 0,
            "byteLength" : 1088,
            "byteOffset" : 3264
        },
        {
            "buffer" : 0,
            "byteLength" : 600,
            "byteOffset" : 4352
        },
        {
            "buffer" : 0,
            "byteLength" : 288,
            "byteOffset" : 4952
        },
        {
            "buffer" : 0,
            "byteLength" : 288,
            "byteOffset" : 5240
        },
        {
            "buffer" : 0,
            "byteLength" : 192,
            "byteOffset" : 5528
        },
        {
            "buffer" : 0,
            "byteLength" : 72,
            "byteOffset" : 5720
        }
    ],
    "buffers" : [
        {
            "byteLength" : 5792,
            "uri" : "data:application/octet-stream;base64,"
        }
    ]
}
