{
    "asset" : {
        "generator" : "Khronos glTF Blender I/O v1.6.16",
        "version" : "2.0"
    },
    "scene" : 0,
    "scenes" : [
        {
            "name" : "Scene",
            "nodes" : [
                0,
                1,
                2
            ]
        }
    ],
    "nodes" : [
        {
            "mesh" : 0,
            "name" : "shaft_stage",
            "scale" : [
                0.10000000149011612,
                1,
                0.10000000149011612
            ],
            "translation" : [
                1.899999976158142,
                5.099999904632568,
                -2.9000000953674316
            ]
        },
        {
            "mesh" : 1,
            "name" : "rails",
            "translation" : [
                -1.7000000476837158,
                4,
                -0.19999998807907104
            ]
        },
        {
            "mesh" : 2,
            "name" : "bot_stage",
            "scale" : [
                1.5,
                0.060000017285346985,
                0.550000011920929
            ],
            "translation" : [
                0,
                4,
                1.9999998807907104
            ]
        }
    ],
    "materials" : [
        {
            "doubleSided" : true,
            "name" : "Material",
            "pbrMetallicRoughness" : {
                "baseColorFactor" : [
                    0.012981990352272987,
                    0.012981990352272987,
                    0.012981990352272987,
                    1
                ],
                "metallicFactor" : 0,
                "roughnessFactor" : 0.5
            }
        },
        {
            "doubleSided" : true,
            "name" : "rails",
            "pbrMetallicRoughness" : {
                "baseColorFactor" : [
                    0.23698851466178894,
                    0.23698851466178894,
                    0.23698851466178894,
                    1
                ],
                "metallicFactor" : 0.586776852607727,
                "roughnessFactor" : 0.5
            }
        },
        {
            "doubleSided" : true,
            "name" : "Material.001",
            "pbrMetallicRoughness" : {
                "baseColorFactor" : [
                    0.8000000715255737,
                    0.25328126549720764,
                    0.02115134708583355,
                    1
                ],
                "metallicFactor" : 0,
                "roughnessFactor" : 0.5
            }
        }
    ],
    "meshes" : [
        {
            "name" : "Cube.009",
            "primitives" : [
                {
                    "attributes" : {
                        "POSITION" : 0,
                        "NORMAL" : 1,
                        "TEXCOORD_0" : 2
                    },
                    "indices" : 3,
                    "material" : 0
                }
            ]
        },
        {
            "name" : "Cube.010",
            "primitives" : [
                {
                    "attributes" : {
                        "POSITION" : 4,
                        "NORMAL" : 5,
                        "TEXCOORD_0" : 6
                    },
                    "indices" : 7,
                    "material" : 1
                }
            ]
        },
        {
            "name" : "Cube.008",
            "primitives" : [
                {
                    "attributes" : {
                        "POSITION" : 8,
                        "NORMAL" : 9,
                        "TEXCOORD_0" : 10
                    },
                    "indices" : 11,
                    "material" : 2
                }
            ]
        }
    ],
    "accessors" : [
        {
            "bufferView" : 0,
            "componentType" : 5126,
            "count" : 48,
            "max" : [
                1,
                2.299999952316284,
                48.999996185302734
            ],
            "min" : [
                -38.999996185302734,
                -2.8000001907348633,
                -1
            ],
            "type" : "VEC3"
        },
        {
            "bufferView" : 1,
            "componentType" : 5126,
            "count" : 48,
            "type" : "VEC3"
        },
        {
            "bufferView" : 2,
            "componentType" : 5126,
            "count" : 48,
            "type" : "VEC2"
        },
        {
            "bufferView" : 3,
            "componentType" : 5123,
            "count" : 84,
            "type" : "SCALAR"
        },
        {
            "bufferView" : 4,
            "componentType" : 5126,
            "count" : 68,
            "max" : [
                0.20000001788139343,
                3.4000000953674316,
                0.10000002384185791
            ],
            "min" : [
                -0.10000002384185791,
                -1.7000000476837158,
                -0.20000001788139343
            ],
            "type" : "VEC3"
        },
        {
            "bufferView" : 5,
            "componentType" : 5126,
            "count" : 68,
            "type" : "VEC3"
        },
        {
            "bufferView" : 6,
            "componentType" : 5126,
            "count" : 68,
            "type" : "VEC2"
        },
        {
            "bufferView" : 7,
            "componentType" : 5123,
            "count" : 108,
            "type" : "SCALAR"
        },
        {
            "bufferView" : 8,
            "componentType" : 5126,
            "count" : 24,
            "max" : [
                1,
                1,
                1
            ],
            "min" : [
                -1,
                -1,
                -1
            ],
            "type" : "VEC3"
        },
        {
            "bufferView" : 9,
            "componentType" : 5126,
            "count" : 24,
            "type" : "VEC3"
        },
        {
            "bufferView" : 10,
            "componentType" : 5126,
            "count" : 24,
            "type" : "VEC2"
        },
        {
            "bufferView" : 11,
            "componentType" : 5123,
            "count" : 36,
            "type" : "SCALAR"
        }
    ],
    "bufferViews" : [
        {
            "buffer" : 0,
            "byteLength" : 576,
            "byteOffset" : 0
        },
        {
            "buffer" : 0,
            "byteLength" : 576,
            "byteOffset" : 576
        },
        {
            "buffer" : 0,
            "byteLength" : 384,
            "byteOffset" : 1152
        },
        {
            "buffer" : 0,
            "byteLength" : 168,
            "byteOffset" : 1536
        },
        {
            "buffer" : 0,
            "byteLength" : 816,
            "byteOffset" : 1704
        },
        {
            "buffer" : 0,
            "byteLength" : 816,
            "byteOffset" : 2520
        },
        {
            "buffer" : 0,
            "byteLength" : 544,
            "byteOffset" : 3336
        },
        {
            "buffer" : 0,
            "byteLength" : 216,
            "byteOffset" : 3880
        },
        {
            "buffer" : 0,
            "byteLength" : 288,
            "byteOffset" : 4096
        },
        {
            "buffer" : 0,
            "byteLength" : 288,
            "byteOffset" : 4384
        },
        {
            "buffer" : 0,
            "byteLength" : 192,
            "byteOffset" : 4672
        },
        {
            "buffer" : 0,
            "byteLength" : 72,
            "byteOffset" : 4864
        }
    ],
    "buffers" : [
        {
            "byteLength" : 4936,
            "uri" : "data:application/octet-stream;base64,"
        }
    ]
}
