{
    "asset" : {
        "generator" : "Khronos glTF Blender I/O v1.6.16",
        "version" : "2.0"
    },
    "scene" : 0,
    "scenes" : [
        {
            "name" : "Scene",
            "nodes" : [
                0,
                1,
                2,
                3,
                4,
                5,
                6
            ]
        }
    ],
    "nodes" : [
        {
            "mesh" : 0,
            "name" : "plane"
        },
        {
            "mesh" : 1,
            "name" : "shaft_bot",
            "scale" : [
                0.10000000149011612,
                1,
                0.10000000149011612
            ],
            "translation" : [
                1.899999976158142,
                1.100000023841858,
                -2.9000000953674316
            ]
        },
        {
            "mesh" : 2,
            "name" : "piston",
            "translation" : [
                -1,
                -0.5,
                -1
            ]
        },
        {
            "mesh" : 3,
            "name" : "piston.001",
            "translation" : [
                1,
                -0.5,
                -1
            ]
        },
        {
            "mesh" : 4,
            "name" : "piston.002",
            "translation" : [
                1,
                -0.5,
                1
            ]
        },
        {
            "mesh" : 5,
            "name" : "piston.003",
            "translation" : [
                -1,
                -0.5,
                1
            ]
        },
        {
            "mesh" : 6,
            "name" : "Cube",
            "scale" : [
                1,
                0.4400000274181366,
                1
            ],
            "translation" : [
                -1.7000000476837158,
                0.800000011920929,
                -0.19999998807907104
            ]
        }
    ],
    "materials" : [
        {
            "doubleSided" : true,
            "name" : "Material.001",
            "pbrMetallicRoughness" : {
                "baseColorFactor" : [
                    0.8000000715255737,
                    0.25328126549720764,
                    0.02115134708583355,
                    1
                ],
                "metallicFactor" : 0,
                "roughnessFactor" : 0.5
            }
        },
        {
            "doubleSided" : true,
            "name" : "Material",
            "pbrMetallicRoughness" : {
                "baseColorFactor" : [
                    0.012981990352272987,
                    0.012981990352272987,
                    0.012981990352272987,
                    1
                ],
                "metallicFactor" : 0,
                "roughnessFactor" : 0.5
            }
        },
        {
            "doubleSided" : true,
            "name" : "porsh",
            "pbrMetallicRoughness" : {
                "baseColorFactor" : [
                    0.0036551973316818476,
                    0.3165857791900635,
                    0.8000000715255737,
                    1
                ],
                "metallicFactor" : 0,
                "roughnessFactor" : 0.5
            }
        },
        {
            "doubleSided" : true,
            "name" : "rails",
            "pbrMetallicRoughness" : {
                "baseColorFactor" : [
                    0.23698851466178894,
                    0.23698851466178894,
                    0.23698851466178894,
                    1
                ],
                "metallicFactor" : 0.586776852607727,
                "roughnessFactor" : 0.5
            }
        }
    ],
    "meshes" : [
        {
            "name" : "Plane.001",
            "primitives" : [
                {
                    "attributes" : {
                        "POSITION" : 0,
                        "NORMAL" : 1,
                        "TEXCOORD_0" : 2
                    },
                    "indices" : 3,
                    "material" : 0
                }
            ]
        },
        {
            "name" : "Cube.005",
            "primitives" : [
                {
                    "attributes" : {
                        "POSITION" : 4,
                        "NORMAL" : 5,
                        "TEXCOORD_0" : 6
                    },
                    "indices" : 7,
                    "material" : 1
                }
            ]
        },
        {
            "name" : "Cylinder",
            "primitives" : [
                {
                    "attributes" : {
                        "POSITION" : 8,
                        "NORMAL" : 9,
                        "TEXCOORD_0" : 10
                    },
                    "indices" : 11,
                    "material" : 2
                }
            ]
        },
        {
            "name" : "Cylinder.001",
            "primitives" : [
                {
                    "attributes" : {
                        "POSITION" : 12,
                        "NORMAL" : 13,
                        "TEXCOORD_0" : 14
                    },
                    "indices" : 11,
                    "material" : 2
                }
            ]
        },
        {
            "name" : "Cylinder.002",
            "primitives" : [
                {
                    "attributes" : {
                        "POSITION" : 15,
                        "NORMAL" : 16,
                        "TEXCOORD_0" : 17
                    },
                    "indices" : 11,
                    "material" : 2
                }
            ]
        },
        {
            "name" : "Cylinder.003",
            "primitives" : [
                {
                    "attributes" : {
                        "POSITION" : 18,
                        "NORMAL" : 19,
                        "TEXCOORD_0" : 20
                    },
                    "indices" : 11,
                    "material" : 2
                }
            ]
        },
        {
            "name" : "Cube.011",
            "primitives" : [
                {
                    "attributes" : {
                        "POSITION" : 21,
                        "NORMAL" : 22,
                        "TEXCOORD_0" : 23
                    },
                    "indices" : 24,
                    "material" : 3
                }
            ]
        }
    ],
    "accessors" : [
        {
            "bufferView" : 0,
            "componentType" : 5126,
            "count" : 24,
            "max" : [
                2,
                0.10000000149011612,
                2
            ],
            "min" : [
                -2,
                0,
                -3
            ],
            "type" : "VEC3"
        },
        {
            "bufferView" : 1,
            "componentType" : 5126,
            "count" : 24,
            "type" : "VEC3"
        },
        {
            "bufferView" : 2,
            "componentType" : 5126,
            "count" : 24,
            "type" : "VEC2"
        },
        {
            "bufferView" : 3,
            "componentType" : 5123,
            "count" : 36,
            "type" : "SCALAR"
        },
        {
            "bufferView" : 4,
            "componentType" : 5126,
            "count" : 48,
            "max" : [
                1,
                1.1999999284744263,
                48.999996185302734
            ],
            "min" : [
                -38.999996185302734,
                -1,
                -1
            ],
            "type" : "VEC3"
        },
        {
            "bufferView" : 5,
            "componentType" : 5126,
            "count" : 48,
            "type" : "VEC3"
        },
        {
            "bufferView" : 6,
            "componentType" : 5126,
            "count" : 48,
            "type" : "VEC2"
        },
        {
            "bufferView" : 7,
            "componentType" : 5123,
            "count" : 84,
            "type" : "SCALAR"
        },
        {
            "bufferView" : 8,
            "componentType" : 5126,
            "count" : 696,
            "max" : [
                0.29000014066696167,
                1.9999992847442627,
                0.2900000512599945
            ],
            "min" : [
                -0.2900000214576721,
                0.5999996662139893,
                -0.28999993205070496
            ],
            "type" : "VEC3"
        },
        {
            "bufferView" : 9,
            "componentType" : 5126,
            "count" : 696,
            "type" : "VEC3"
        },
        {
            "bufferView" : 10,
            "componentType" : 5126,
            "count" : 696,
            "type" : "VEC2"
        },
        {
            "bufferView" : 11,
            "componentType" : 5123,
            "count" : 1140,
            "type" : "SCALAR"
        },
        {
            "bufferView" : 12,
            "componentType" : 5126,
            "count" : 696,
            "max" : [
                0.29000014066696167,
                1.9999992847442627,
                0.2900000512599945
            ],
            "min" : [
                -0.2900000214576721,
                0.5999996662139893,
                -0.28999993205070496
            ],
            "type" : "VEC3"
        },
        {
            "bufferView" : 13,
            "componentType" : 5126,
            "count" : 696,
            "type" : "VEC3"
        },
        {
            "bufferView" : 14,
            "componentType" : 5126,
            "count" : 696,
            "type" : "VEC2"
        },
        {
            "bufferView" : 15,
            "componentType" : 5126,
            "count" : 696,
            "max" : [
                0.29000014066696167,
                1.9999992847442627,
                0.2900000512599945
            ],
            "min" : [
                -0.2900000214576721,
                0.5999996662139893,
                -0.28999993205070496
            ],
            "type" : "VEC3"
        },
        {
            "bufferView" : 16,
            "componentType" : 5126,
            "count" : 696,
            "type" : "VEC3"
        },
        {
            "bufferView" : 17,
            "componentType" : 5126,
            "count" : 696,
            "type" : "VEC2"
        },
        {
            "bufferView" : 18,
            "componentType" : 5126,
            "count" : 696,
            "max" : [
                0.29000014066696167,
                1.9999992847442627,
                0.2900000512599945
            ],
            "min" : [
                -0.2900000214576721,
                0.5999996662139893,
                -0.28999993205070496
            ],
            "type" : "VEC3"
        },
        {
            "bufferView" : 19,
            "componentType" : 5126,
            "count" : 696,
            "type" : "VEC3"
        },
        {
            "bufferView" : 20,
            "componentType" : 5126,
            "count" : 696,
            "type" : "VEC2"
        },
        {
            "bufferView" : 21,
            "componentType" : 5126,
            "count" : 68,
            "max" : [
                0.20000001788139343,
                3.4000000953674316,
                0.10000002384185791
            ],
            "min" : [
                -0.10000002384185791,
                -1.7000000476837158,
                -0.20000001788139343
            ],
            "type" : "VEC3"
        },
        {
            "bufferView" : 22,
            "componentType" : 5126,
            "count" : 68,
            "type" : "VEC3"
        },
        {
            "bufferView" : 23,
            "componentType" : 5126,
            "count" : 68,
            "type" : "VEC2"
        },
        {
            "bufferView" : 24,
            "componentType" : 5123,
            "count" : 108,
            "type" : "SCALAR"
        }
    ],
    "bufferViews" : [
        {
            "buffer" : 0,
            "byteLength" : 288,
            "byteOffset" : 0
        },
        {
            "buffer" : 0,
            "byteLength" : 288,
            "byteOffset" : 288
        },
        {
            "buffer" : 0,
            "byteLength" : 192,
            "byteOffset" : 576
        },
        {
            "buffer" : 0,
            "byteLength" : 72,
            "byteOffset" : 768
        },
        {
            "buffer" : 0,
            "byteLength" : 576,
            "byteOffset" : 840
        },
        {
            "buffer" : 0,
            "byteLength" : 576,
            "byteOffset" : 1416
        },
        {
            "buffer" : 0,
            "byteLength" : 384,
            "byteOffset" : 1992
        },
        {
            "buffer" : 0,
            "byteLength" : 168,
            "byteOffset" : 2376
        },
        {
            "buffer" : 0,
            "byteLength" : 8352,
            "byteOffset" : 2544
        },
        {
            "buffer" : 0,
            "byteLength" : 8352,
            "byteOffset" : 10896
        },
        {
            "buffer" : 0,
            "byteLength" : 5568,
            "byteOffset" : 19248
        },
        {
            "buffer" : 0,
            "byteLength" : 2280,
            "byteOffset" : 24816
        },
        {
            "buffer" : 0,
            "byteLength" : 8352,
            "byteOffset" : 27096
        },
        {
            "buffer" : 0,
            "byteLength" : 8352,
            "byteOffset" : 35448
        },
        {
            "buffer" : 0,
            "byteLength" : 5568,
            "byteOffset" : 43800
        },
        {
            "buffer" : 0,
            "byteLength" : 8352,
            "byteOffset" : 49368
        },
        {
            "buffer" : 0,
            "byteLength" : 8352,
            "byteOffset" : 57720
        },
        {
            "buffer" : 0,
            "byteLength" : 5568,
            "byteOffset" : 66072
        },
        {
            "buffer" : 0,
            "byteLength" : 8352,
            "byteOffset" : 71640
        },
        {
            "buffer" : 0,
            "byteLength" : 8352,
            "byteOffset" : 79992
        },
        {
            "buffer" : 0,
            "byteLength" : 5568,
            "byteOffset" : 88344
        },
        {
            "buffer" : 0,
            "byteLength" : 816,
            "byteOffset" : 93912
        },
        {
            "buffer" : 0,
            "byteLength" : 816,
            "byteOffset" : 94728
        },
        {
            "buffer" : 0,
            "byteLength" : 544,
            "byteOffset" : 95544
        },
        {
            "buffer" : 0,
            "byteLength" : 216,
            "byteOffset" : 96088
        }
    ],
    "buffers" : [
        {
            "byteLength" : 96304,
            "uri" : "data:application/octet-stream;base64,"
        }
    ]
}
